<svg xmlns="http://www.w3.org/2000/svg" xmlns:xlink="http://www.w3.org/1999/xlink" width="38.049" height="53.208" viewBox="0 0 38.049 53.208">
  <defs>
    <linearGradient id="linear-gradient" x1="-0.362" y1="-0.372" x2="0.5" y2="1" gradientUnits="objectBoundingBox">
      <stop offset="0" stop-color="#bba485"/>
      <stop offset="0.365" stop-color="#e5d6b3"/>
      <stop offset="0.685" stop-color="#bba87c"/>
      <stop offset="1" stop-color="#b29777"/>
    </linearGradient>
  </defs>
  <path id="LOGO-FYD-VECTORIEL" d="M17.984,0A17.882,17.882,0,0,0,7.691,3.245c-.271.189-.536.385-.794.592-.278.214-.546.439-.809.674A17.951,17.951,0,0,0,0,17.983V35.225a17.9,17.9,0,0,0,.482,4.144c-.074.036-.148.069-.227.1H.508a18.015,18.015,0,0,0,17.476,13.74h2.082A18,18,0,0,0,38.049,35.225V17.983A17.862,17.862,0,0,0,36.6,10.91c-.12-.281-.247-.559-.385-.834A18,18,0,0,0,20.066,0H17.984Zm0,.51h2.082a17.494,17.494,0,0,1,15.58,9.566H31.671c1.066.444,1.888,1.107,1.888,2.291,0,1.847-8.048,17.371-9.28,19.959-.633-1.253-3.149-5.994-5.448-10.54A2.81,2.81,0,0,1,20.3,23.13V19.139a2.669,2.669,0,0,1-2.064,1.46c-1.932-3.858-3.565-7.333-3.565-8.083,0-1.258,1.067-2,2.3-2.439H8.181a7.923,7.923,0,0,1,4.187,3.917l3.358,6.772H11.51c-2.3,0-5.422-2.143-5.422-4.435V5.2a17.129,17.129,0,0,1,1.651-1.36H17.833c3.039,0,6,.074,7.392,2.883l.74-3.475H8.607A17.37,17.37,0,0,1,17.984.51ZM.51,35.225V17.983A17.374,17.374,0,0,1,3.3,8.522c.028,1.227-.087,2.488-.087,3.6,0,4.731,1.643,7.466,6.9,8.943-7.555,2-7.063,6.726-7.063,12.493,0,2.143-.066,4.35-2.1,5.57a17.4,17.4,0,0,1-.439-3.9ZM24.978,33.1l9.158-19.106a8.281,8.281,0,0,1,2.049-2.756,17.375,17.375,0,0,1,1.355,6.746v3.179c-6.6,1.005-10.464,7.2-10.464,13.057A7.343,7.343,0,0,0,24.978,33.1ZM1.033,39.468H8.964c-2.054-.814-2.876-1.924-2.876-3.993V26.161c0-2.365,3.039-4.8,5.422-4.8h4.511L21.6,32.612c-7.188.166-12.459,5.514-12.459,11.926a8.1,8.1,0,0,0,4.455,7.6A17.526,17.526,0,0,1,1.033,39.468ZM29,49.09V34.681c0-5.649.255-11.872,8.2-11.872l.344,0V35.225a17.483,17.483,0,0,1-8.418,14.939h0A4.969,4.969,0,0,1,29,49.09ZM11.383,43.729c0-5.3,3.651-10.778,10.184-10.778.072,0,.14,0,.207,0l1.191,2.4c-1.4,2.881-3.12,8.721-7.558,8.721a6.787,6.787,0,0,1-2.136-.37v2.439A8.945,8.945,0,0,0,21.24,40.9l3.483-7.267C27,34.9,27.075,37.671,27.075,39.868v4.437c-.064,3.631-3.524,7.782-7.558,7.782-5.445,0-8.135-3.8-8.135-8.359Zm15.692,2.595c-.036,1.268-.332,3.312.2,4.817a17.339,17.339,0,0,1-6.2,1.526C24,51.593,26.779,48.975,27.075,46.324Z" transform="translate(0 0)" fill="url(#linear-gradient)"/>
</svg>
