<svg id="Composant_45_1" data-name="Composant 45 – 1" xmlns="http://www.w3.org/2000/svg" xmlns:xlink="http://www.w3.org/1999/xlink" width="265.405" height="372" viewBox="0 0 265.405 372">
  <defs>
    <linearGradient id="linear-gradient" x1="0.199" y1="0.029" x2="0.776" y2="0.931" gradientUnits="objectBoundingBox">
      <stop offset="0" stop-color="#af783b"/>
      <stop offset="0.202" stop-color="#eaddc9"/>
      <stop offset="0.444" stop-color="#d1a777"/>
      <stop offset="0.691" stop-color="#9f6d3b"/>
      <stop offset="0.854" stop-color="#ead1cd"/>
      <stop offset="1" stop-color="#946334"/>
    </linearGradient>
  </defs>
  <rect id="Rectangle_2383" data-name="Rectangle 2383" width="259" height="372" rx="129.5" transform="translate(2.702)" fill="#fff"/>
  <g id="Groupe_3" data-name="Groupe 3" transform="translate(-2224.075 -395.707)">
    <path id="Tracé_34" data-name="Tracé 34" d="M2479.372,472.242c-.837-1.958-1.727-3.9-2.688-5.82a125.543,125.543,0,0,0-112.643-70.284h-14.523a124.738,124.738,0,0,0-71.8,22.639c-1.886,1.317-3.737,2.688-5.535,4.129-1.94,1.5-3.809,3.062-5.642,4.7a125.219,125.219,0,0,0-42.466,93.973v120.26a124.835,124.835,0,0,0,3.364,28.9c-.516.249-1.032.481-1.584.694h1.762a125.658,125.658,0,0,0,121.9,95.842h14.523a125.526,125.526,0,0,0,125.44-125.44V521.578a124.624,124.624,0,0,0-10.107-49.336ZM2278.06,422.906h70.408c21.2,0,41.825.517,51.56,20.112l5.162-24.241H2284.111a121.164,121.164,0,0,1,65.407-19.079h14.523a122.03,122.03,0,0,1,108.674,66.724h-27.729c7.44,3.1,13.171,7.725,13.171,15.983,0,12.886-56.135,121.168-64.731,139.215-4.414-8.739-21.963-41.807-38-73.523a19.6,19.6,0,0,1,10.234,9.379V529.641c-2.777,6.086-8.187,8.916-14.4,10.18-13.473-26.911-24.863-51.151-24.863-56.384,0-8.774,7.439-13.918,16.036-17.015h-61.3c13.74,5.66,22.905,14.951,29.206,27.32l23.422,47.236h-29.4c-16.054,0-37.821-14.95-37.821-30.933V432.393A119.733,119.733,0,0,1,2278.06,422.906Zm82.155,336.559c-37.981,0-56.74-26.537-56.74-58.306,0-36.984,25.469-75.178,71.031-75.178.5,0,.979,0,1.442.017l8.312,16.766c-9.736,20.094-21.767,60.833-52.718,60.833a47.349,47.349,0,0,1-14.9-2.58v17.014c25.79,0,45.848-16.5,55.583-36.61l24.294-50.688c15.912,8.81,16.41,28.174,16.41,43.5v30.95c-.442,25.325-24.576,54.282-52.714,54.282ZM2227.638,641.838V521.578a121.181,121.181,0,0,1,19.453-65.995c.2,8.561-.6,17.353-.6,25.078,0,33,11.462,52.076,48.126,62.381-52.7,13.918-49.265,46.916-49.265,87.139,0,14.95-.463,30.345-14.648,38.853A121.338,121.338,0,0,1,2227.638,641.838Zm3.649,29.6H2286.6c-14.327-5.677-20.058-13.419-20.058-27.853V578.62c0-16.5,21.2-33.513,37.821-33.513h31.466l38.924,78.506c-50.136,1.157-86.907,38.462-86.907,83.188,0,23.974,11.284,43.16,31.075,53.02a122.24,122.24,0,0,1-87.634-88.385Zm139.784,92.069c20.415-7.493,39.8-25.754,41.861-44.246-.249,8.846-2.314,23.1,1.388,33.6a120.944,120.944,0,0,1-43.249,10.644Zm114.85-121.667a121.952,121.952,0,0,1-58.715,104.207h-.018a34.716,34.716,0,0,1-.854-7.493v-100.5c0-39.4,1.78-82.814,57.185-82.814.8,0,1.6-.018,2.4-.018Zm-72.989-7.012a51.186,51.186,0,0,0-14.63-7.813l63.877-133.271a57.8,57.8,0,0,1,14.292-19.222,121.2,121.2,0,0,1,9.45,47.058v22.176c-46.043,7.011-72.989,50.224-72.989,91.07Z" fill="url(#linear-gradient)"/>
  </g>
</svg>
