<svg id="close_1_" xmlns="http://www.w3.org/2000/svg" width="15.043" height="14.87" viewBox="0 0 15.043 14.87">
  <path id="Tracé_217" data-name="Tracé 217" d="M1.427,17.3a1.425,1.425,0,0,1-1.012-.342,1.425,1.425,0,0,1,0-2.009l12.1-12.1a1.425,1.425,0,0,1,2.08,1.938L2.424,16.962a1.425,1.425,0,0,1-1,.342Z" transform="translate(-0.001 -2.441)" fill="#d8d8d8"/>
  <path id="Tracé_218" data-name="Tracé 218" d="M14.966,16.706a1.425,1.425,0,0,1-1-.413L1.871,4.2A1.425,1.425,0,0,1,3.88,2.187l12.168,12.1a1.425,1.425,0,0,1,.066,2.014q-.032.034-.066.066a1.425,1.425,0,0,1-1.083.342Z" transform="translate(-1.457 -1.844)" fill="#d8d8d8"/>
</svg>
