<svg xmlns="http://www.w3.org/2000/svg" width="94.433" height="28.458" viewBox="0 0 94.433 28.458">
  <g id="amazon-pay" transform="translate(0 -206.938)">
    <g id="amazonpay-logo-rgb_clr" transform="translate(0 206.938)">
      <path id="Shape" d="M11.553,223.521a.6.6,0,0,1-.69.07,7.072,7.072,0,0,1-1.673-1.947,5.792,5.792,0,0,1-4.817,2.123c-2.459,0-4.372-1.518-4.372-4.554a4.981,4.981,0,0,1,3.1-4.773,20.257,20.257,0,0,1,5.492-1.013v-.378a3.76,3.76,0,0,0-.354-2.12,1.946,1.946,0,0,0-1.639-.758,2.227,2.227,0,0,0-2.35,1.753.613.613,0,0,1-.517.538l-2.808-.308a.517.517,0,0,1-.434-.61c.649-3.434,3.752-4.471,6.531-4.471a6.605,6.605,0,0,1,4.4,1.453c1.419,1.329,1.293,3.1,1.293,5.029V218.1a3.98,3.98,0,0,0,1.1,2.707.561.561,0,0,1,0,.776c-.6.5-1.657,1.419-2.239,1.939h0ZM8.608,216.4a5.776,5.776,0,0,1-.546,3.1,2.375,2.375,0,0,1-2.024,1.329c-1.119,0-1.774-.853-1.774-2.12,0-2.487,2.231-2.94,4.344-2.94v.629Z" transform="translate(0 -207.035)" fill="#f2ff52" fill-rule="evenodd"/>
      <path id="Path_00000111892064443368038330000016638241374509145249_" d="M58.978,223.368H56.059a.548.548,0,0,1-.517-.494v-15a.554.554,0,0,1,.559-.535h2.723a.548.548,0,0,1,.517.517v1.957h.054a3.851,3.851,0,0,1,3.845-2.777c1.8,0,2.971.882,3.79,2.777a4.313,4.313,0,0,1,7.428-1.15c.928,1.262.737,3.1.737,4.7v9.461a.551.551,0,0,1-.563.541H71.712a.546.546,0,0,1-.517-.538v-7.948a19.113,19.113,0,0,0-.083-2.808,1.522,1.522,0,0,0-1.717-1.293,1.939,1.939,0,0,0-1.745,1.228,9.082,9.082,0,0,0-.274,2.873v7.946a.551.551,0,0,1-.561.541H63.889a.548.548,0,0,1-.517-.538v-7.948c0-1.673.259-4.137-1.81-4.137s-2.017,2.4-2.017,4.137v7.946a.551.551,0,0,1-.563.541" transform="translate(-39.426 -206.995)" fill="#f2ff52" fill-rule="evenodd"/>
      <path id="Tracé_28966" data-name="Tracé 28966" d="M145.776,220.774a3.98,3.98,0,0,1-1.1-2.7v-4.551c0-1.929.137-3.7-1.293-5.029a6.614,6.614,0,0,0-4.4-1.453c-2.779,0-5.882,1.034-6.534,4.471a.517.517,0,0,0,.437.613l2.831.3a.615.615,0,0,0,.517-.538,2.227,2.227,0,0,1,2.348-1.753,1.939,1.939,0,0,1,1.639.76,3.727,3.727,0,0,1,.357,2.118v.37a20.138,20.138,0,0,0-5.492,1.011,4.963,4.963,0,0,0-3.116,4.776c0,3.033,1.913,4.551,4.372,4.551a5.793,5.793,0,0,0,4.814-2.123,7.079,7.079,0,0,0,1.675,1.947.608.608,0,0,0,.69-.067h0c.582-.517,1.642-1.44,2.239-1.939C146.014,221.359,145.973,221.043,145.776,220.774Zm-5.74-1.311a2.373,2.373,0,0,1-2.022,1.326c-1.119,0-1.774-.853-1.774-2.118,0-2.49,2.231-2.94,4.344-2.94v.631A5.785,5.785,0,0,1,140.036,219.463Z" transform="translate(-93.679 -207.008)" fill="#f2ff52" fill-rule="evenodd"/>
      <path id="Tracé_28967" data-name="Tracé 28967" d="M186.738,210.62v-2.143a.517.517,0,0,1,.546-.54h9.6a.535.535,0,0,1,.553.541v1.838a2.939,2.939,0,0,1-.721,1.347l-4.975,7.1a10.635,10.635,0,0,1,5.476,1.177.978.978,0,0,1,.517.835v2.3a.515.515,0,0,1-.709.491,11.057,11.057,0,0,0-10.143.018c-.334.178-.683-.181-.683-.5V220.9a2.584,2.584,0,0,1,.357-1.471l5.763-8.274h-5.026a.535.535,0,0,1-.556-.54" transform="translate(-132.169 -207.646)" fill="#f2ff52" fill-rule="evenodd"/>
      <path id="Tracé_28968" data-name="Tracé 28968" d="M237.367,210.071c-2.154,0-2.291,2.932-2.291,4.763s-.026,5.74,2.262,5.74,2.374-3.154,2.374-5.078a13.822,13.822,0,0,0-.437-3.974A1.836,1.836,0,0,0,237.367,210.071Zm-.028-3.061c4.336,0,6.681,3.723,6.681,8.455,0,4.574-2.586,8.2-6.681,8.2-4.253,0-6.57-3.723-6.57-8.359S233.113,207.01,237.338,207.01Z" transform="translate(-163.808 -206.989)" fill="#f2ff52" fill-rule="evenodd"/>
      <path id="Tracé_28969" data-name="Tracé 28969" d="M287.529,223.28h-2.911a.545.545,0,0,1-.517-.538v-15a.551.551,0,0,1,.561-.491h2.71a.551.551,0,0,1,.517.419v2.293h.057c.817-2.05,1.962-3.028,3.979-3.028a3.842,3.842,0,0,1,3.41,1.766c.763,1.2.763,3.219.763,4.67v9.435a.556.556,0,0,1-.561.471H292.6a.546.546,0,0,1-.517-.471v-8.142c0-1.639.191-4.039-1.828-4.039a1.918,1.918,0,0,0-1.691,1.2,6.683,6.683,0,0,0-.463,2.844v8.07a.559.559,0,0,1-.569.538" transform="translate(-201.665 -206.938)" fill="#f2ff52" fill-rule="evenodd"/>
      <path id="Tracé_28973" data-name="Tracé 28973" d="M90.958,271.211c-5.484,4.047-13.445,6.205-20.282,6.205a36.7,36.7,0,0,1-24.77-9.451c-.517-.463-.057-1.1.561-.737A49.858,49.858,0,0,0,71.253,273.8a49.35,49.35,0,0,0,18.909-3.878c.926-.393,1.7.61.8,1.293m2.28-2.6c.7.9-.776,4.6-1.44,6.252-.2.5.23.7.683.323,2.94-2.461,3.7-7.617,3.1-8.362s-5.74-1.376-8.879.83c-.483.339-.4.807.137.742,1.766-.212,5.7-.685,6.4.215" transform="translate(-32.427 -248.959)" fill="#f2ff52" fill-rule="evenodd"/>
    </g>
  </g>
</svg>
