<svg id="Layer_2" data-name="Layer 2" xmlns="http://www.w3.org/2000/svg" width="13.038" height="13.026" viewBox="0 0 13.038 13.026">
  <path id="Tracé_535" data-name="Tracé 535" d="M7.513,1a6.5,6.5,0,0,0-5.7,9.647l-.785,2.617a.592.592,0,0,0,.567.762A.6.6,0,0,0,1.762,14l2.617-.785A6.513,6.513,0,1,0,7.513,1Zm0,11.841a5.308,5.308,0,0,1-2.752-.773.6.6,0,0,0-.307-.085.576.576,0,0,0-.17.025l-1.808.543.542-1.809a.592.592,0,0,0-.059-.474,5.324,5.324,0,1,1,4.554,2.573Z" transform="translate(-1 -1)" fill="#fff"/>
</svg>
