<svg xmlns="http://www.w3.org/2000/svg" width="26.853" height="26.853" viewBox="0 0 26.853 26.853">
  <g id="vuesax_twotone_lovely" data-name="vuesax/twotone/lovely" transform="translate(-748 -252)">
    <g id="lovely" transform="translate(748 252)">
      <path id="Vector" d="M19.983,5.583a10.759,10.759,0,0,1-.089,1.365,4.156,4.156,0,0,0-4.99,1.32,4.157,4.157,0,0,0-7.485,2.517,9.118,9.118,0,0,0,3.357,6.848,1.05,1.05,0,0,1-.168.067,2.1,2.1,0,0,1-1.231,0C6.478,16.7,0,12.587,0,5.583A5.548,5.548,0,0,1,9.992,2.227a5.548,5.548,0,0,1,9.992,3.357Z" transform="translate(2.238 3.469)" fill="none" stroke="#fff" stroke-linecap="round" stroke-linejoin="round" stroke-width="1.5" opacity="0.4"/>
      <g id="Group" transform="translate(9.656 10.07)">
        <path id="Vector-2" data-name="Vector" d="M14.959,4.185c0,5.236-4.845,8.324-7.015,9.063a1.639,1.639,0,0,1-.929,0,11.6,11.6,0,0,1-3.659-2.215A9.118,9.118,0,0,1,0,4.185,4.157,4.157,0,0,1,7.485,1.667a4.156,4.156,0,0,1,4.99-1.32A4.179,4.179,0,0,1,14.959,4.185Z" fill="none" stroke="#fff" stroke-linecap="round" stroke-linejoin="round" stroke-width="1.5"/>
      </g>
      <path id="Vector-3" data-name="Vector" d="M0,0H26.853V26.853H0Z" fill="none" opacity="0"/>
    </g>
  </g>
</svg>
