<svg xmlns="http://www.w3.org/2000/svg" width="30" height="30" viewBox="0 0 30 30">
  <path id="euro-sign" d="M16.5,1.5a15,15,0,1,0,15,15,15,15,0,0,0-15-15Zm6.114,20.721A7.58,7.58,0,0,1,10.5,19.092H9.043a1,1,0,0,1,0-2h1.022c-.015-.192-.032-.392-.032-.592s.015-.4.03-.595H9.043a1,1,0,0,1,0-2H10.5a7.594,7.594,0,0,1,7.121-4.994,7.511,7.511,0,0,1,4.687,1.62A1,1,0,1,1,21.073,12.1a5.533,5.533,0,0,0-3.451-1.192,5.591,5.591,0,0,0-4.945,2.994h4.161a1,1,0,0,1,0,2H12.068a5.644,5.644,0,0,0-.035.595,5.733,5.733,0,0,0,.031.589h4.772a1,1,0,0,1,0,2h-4.16A5.584,5.584,0,0,0,21.3,20.714a1,1,0,1,1,1.315,1.507Z" transform="translate(-1.5 -1.5)" fill="#fff"/>
</svg>
