<svg xmlns="http://www.w3.org/2000/svg" width="33.427" height="31.083" viewBox="0 0 33.427 31.083">
  <path id="Soustraction_1" data-name="Soustraction 1" d="M17.969,31.083a1.062,1.062,0,0,1-.527-.141A62.608,62.608,0,0,1,8.8,24.724,35.645,35.645,0,0,1,2.807,18.3,13.544,13.544,0,0,1,0,10.592,11.125,11.125,0,0,1,2.838,3.141,9.3,9.3,0,0,1,9.764,0a9.167,9.167,0,0,1,4.7,1.315,10.2,10.2,0,0,1,3.5,3.553,10.207,10.207,0,0,1,3.5-3.553,9.08,9.08,0,0,1,8.1-.656A8.9,8.9,0,0,0,32.94,17.8c.162,0,.326,0,.487-.013-.126.19-.24.357-.348.511a36.162,36.162,0,0,1-5.985,6.421,63.132,63.132,0,0,1-8.6,6.218A1.057,1.057,0,0,1,17.969,31.083Z" fill="#fff"/>
</svg>
