<svg xmlns="http://www.w3.org/2000/svg" width="23.977" height="21.75" viewBox="0 0 23.977 21.75">
  <g id="Groupe_3138" data-name="Groupe 3138" transform="translate(-334.491 -223.249)">
    <path id="Tracé_930" data-name="Tracé 930" d="M0,12.525H0L18.556,0" transform="translate(336.753 229.798)" fill="#ea1962"/>
    <path id="Soustraction_1" data-name="Soustraction 1" d="M11.707,20.25a.692.692,0,0,1-.343-.092,40.789,40.789,0,0,1-5.63-4.051,23.223,23.223,0,0,1-3.905-4.185A8.824,8.824,0,0,1,0,6.9,7.248,7.248,0,0,1,1.849,2.046,6.061,6.061,0,0,1,6.361,0,5.972,5.972,0,0,1,9.424.857a6.647,6.647,0,0,1,2.283,2.315A6.65,6.65,0,0,1,13.99.857,5.915,5.915,0,0,1,19.268.429,5.8,5.8,0,0,0,21.46,11.6c.105,0,.212,0,.317-.009-.082.124-.156.233-.227.333a23.559,23.559,0,0,1-3.9,4.184,41.13,41.13,0,0,1-5.6,4.051A.689.689,0,0,1,11.707,20.25Z" transform="translate(335.241 223.999)" fill="none" stroke="#7f7688" stroke-width="1.5"/>
    <path id="Tracé_929" data-name="Tracé 929" d="M-8077.041-2908.232a4.788,4.788,0,0,1,1.2-2.476,3.953,3.953,0,0,1,2.237-1.227" transform="translate(8415.398 3139.211)" fill="none" stroke="#554960" stroke-linecap="round" stroke-width="1.5"/>
  </g>
</svg>
