<svg id="Groupe_3142" data-name="Groupe 3142" xmlns="http://www.w3.org/2000/svg" width="26.783" height="24.905" viewBox="0 0 26.783 24.905">
  <path id="Tracé_930" data-name="Tracé 930" d="M0,15.4H0L22.821,0" transform="translate(1.859 7.132)" fill="#ea1962"/>
  <path id="Soustraction_1" data-name="Soustraction 1" d="M14.4,24.9a.851.851,0,0,1-.422-.113A50.164,50.164,0,0,1,7.052,19.81a28.56,28.56,0,0,1-4.8-5.147A10.852,10.852,0,0,1,0,8.487a8.914,8.914,0,0,1,2.274-5.97A7.454,7.454,0,0,1,7.823,0,7.345,7.345,0,0,1,11.59,1.053,8.174,8.174,0,0,1,14.4,3.9a8.178,8.178,0,0,1,2.808-2.847A7.275,7.275,0,0,1,23.7.528a7.133,7.133,0,0,0,2.7,13.737c.13,0,.261,0,.39-.011-.1.152-.192.286-.279.41a28.974,28.974,0,0,1-4.8,5.145,50.584,50.584,0,0,1-6.887,4.982A.847.847,0,0,1,14.4,24.9Z" transform="translate(0 0)" fill="#9443d9"/>
  <path id="Tracé_929" data-name="Tracé 929" d="M-8077.04-2907.381a5.886,5.886,0,0,1,1.479-3.044,4.862,4.862,0,0,1,2.752-1.509" transform="translate(8079.732 2914.824)" fill="none" stroke="#fff" stroke-linecap="round" stroke-width="1.8"/>
</svg>
