<svg xmlns="http://www.w3.org/2000/svg" width="16.35" height="19.322" viewBox="0 0 16.35 19.322">
  <g id="user_account_people_man" data-name="user, account, people, man" transform="translate(-5 -3)">
    <path id="Tracé_925" data-name="Tracé 925" d="M18.925,16.107a.743.743,0,1,0-1.045,1.057,6.642,6.642,0,0,1,1.983,4.754c0,.909-2.605,2.229-6.688,2.229s-6.688-1.321-6.688-2.231a6.643,6.643,0,0,1,1.958-4.729.743.743,0,1,0-1.051-1.051A8.12,8.12,0,0,0,5,21.918c0,2.413,4.212,3.716,8.175,3.716s8.175-1.3,8.175-3.716A8.115,8.115,0,0,0,18.925,16.107Z" transform="translate(0 -3.311)" fill="#fff"/>
    <path id="Tracé_926" data-name="Tracé 926" d="M14.2,13.4A5.2,5.2,0,1,0,9,8.2a5.2,5.2,0,0,0,5.2,5.2Zm0-8.918A3.716,3.716,0,1,1,10.486,8.2,3.716,3.716,0,0,1,14.2,4.486Z" transform="translate(-1.027)" fill="#fff"/>
  </g>
</svg>
