<svg xmlns="http://www.w3.org/2000/svg" width="15.243" height="15.243" viewBox="0 0 15.243 15.243">
  <g id="price-tag" transform="translate(0 0)">
    <path id="Tracé_28712" data-name="Tracé 28712" d="M200.122,151.264l-.8-1.066-.445,3.112a1.348,1.348,0,0,1-.379.758l-5.473,5.474a2.514,2.514,0,0,1-1.789.74,2.554,2.554,0,0,1-.592-.07,1.637,1.637,0,0,0,1.38.758h6.55a1.639,1.639,0,0,0,1.637-1.637v-7.8A.447.447,0,0,0,200.122,151.264Z" transform="translate(-184.968 -145.726)" fill="#fff"/>
    <circle id="Ellipse_183" data-name="Ellipse 183" cx="0.447" cy="0.447" r="0.447" transform="translate(8.769 6.526)" fill="#fff"/>
    <circle id="Ellipse_184" data-name="Ellipse 184" cx="0.447" cy="0.447" r="0.447" transform="translate(3.717 6.526)" fill="#fff"/>
    <path id="Tracé_28713" data-name="Tracé 28713" d="M7.426,13.183,12.9,7.709a.447.447,0,0,0,.126-.253l.632-4.421a.447.447,0,0,0-.126-.379l-.947-.947L11.321,2.973l.316.316a.447.447,0,1,1-.632.632L9.742,2.657a.447.447,0,0,1,.632-.632l.316.316,1.263-1.263L11.005.131A.447.447,0,0,0,10.626,0L6.205.636a.447.447,0,0,0-.253.126L.479,6.236a1.639,1.639,0,0,0,0,2.316l4.631,4.631a1.639,1.639,0,0,0,2.316,0Zm1.789-7.55a1.34,1.34,0,1,1-1.34,1.34,1.341,1.341,0,0,1,1.34-1.34ZM4.163,8.312A1.34,1.34,0,1,1,5.5,6.973,1.341,1.341,0,0,1,4.163,8.312Zm1.474,2.265a.447.447,0,0,1-.424-.588L7.318,3.674a.447.447,0,0,1,.847.282L6.061,10.272A.447.447,0,0,1,5.637,10.577Z" transform="translate(0)" fill="#fff"/>
    <path id="Tracé_28714" data-name="Tracé 28714" d="M403.036.763A.447.447,0,0,0,402.4.131l-.947.947.632.632Z" transform="translate(-389.505 0)" fill="#fff"/>
  </g>
</svg>
