<svg xmlns="http://www.w3.org/2000/svg" width="25.22" height="25.738" viewBox="0 0 25.22 25.738">
  <g id="rotating-arrow-to-the-left" transform="translate(0 20.739) rotate(-76)">
    <path id="Tracé_9" data-name="Tracé 9" d="M10.687,20.663A10.684,10.684,0,0,0,18.415,2.6s.275-.619.616-1.383-.149-1.3-1.094-1.2l-5.53.579c-.944.1-1.258.8-.7,1.57l3.267,4.5c.558.768,1.246.86,1.538.205l.528-1.186a7.672,7.672,0,1,1-13.028.5A1.5,1.5,0,1,0,1.4,4.688a10.689,10.689,0,0,0,9.289,15.975Z" fill="#fff"/>
  </g>
</svg>
