<svg id="close_1_" xmlns="http://www.w3.org/2000/svg" width="24.875" height="24.589" viewBox="0 0 24.875 24.589">
  <path id="Tracé_6" data-name="Tracé 6" d="M2.359,27a2.356,2.356,0,0,1-1.673-.565,2.356,2.356,0,0,1,0-3.322l20-20a2.356,2.356,0,0,1,3.44,3.2L4.008,26.433A2.356,2.356,0,0,1,2.359,27Z" transform="translate(-0.001 -2.422)" fill="#fff"/>
  <path id="Tracé_7" data-name="Tracé 7" d="M23.748,26.42a2.356,2.356,0,0,1-1.649-.683l-20-20A2.356,2.356,0,0,1,5.417,2.411l20.122,20a2.356,2.356,0,0,1,.11,3.33q-.053.057-.11.11a2.356,2.356,0,0,1-1.791.565Z" transform="translate(-1.41 -1.844)" fill="#fff"/>
</svg>
