<svg xmlns="http://www.w3.org/2000/svg" width="15.773" height="21.26" viewBox="0 0 15.773 21.26">
  <g id="share" transform="translate(-40.001 -0.002)">
    <path id="Tracé_923" data-name="Tracé 923" d="M96.752,4.844l1.33-1.33V14.061a1.029,1.029,0,1,0,2.057,0V3.514l1.33,1.33a1.029,1.029,0,0,0,1.455-1.455L99.838.3Q99.8.267,99.763.235L99.728.209,99.682.175,99.638.149,99.6.123,99.55.1,99.5.08,99.46.064l-.05-.018L99.364.035,99.311.022,99.26.014,99.212.007c-.032,0-.063,0-.1,0H99.1q-.048,0-.1,0l-.047.007L98.91.022l-.051.013-.046.012-.049.017L98.717.08,98.673.1l-.047.023-.041.024-.046.028L98.5.207l-.038.028c-.025.021-.049.042-.072.065l0,0L95.3,3.389a1.029,1.029,0,0,0,1.455,1.455Z" transform="translate(-51.223)" fill="#fff"/>
    <path id="Tracé_924" data-name="Tracé 924" d="M54.746,100H52a1.029,1.029,0,0,0,0,2.057h1.714v10.287H42.058V102.059h1.714a1.029,1.029,0,0,0,0-2.057H41.03A1.029,1.029,0,0,0,40,101.031v12.344A1.029,1.029,0,0,0,41.03,114.4H54.746a1.029,1.029,0,0,0,1.029-1.029V101.031A1.029,1.029,0,0,0,54.746,100Z" transform="translate(0 -93.142)" fill="#fff"/>
  </g>
</svg>
