<svg xmlns="http://www.w3.org/2000/svg" width="20.168" height="19.223" viewBox="0 0 20.168 19.223">
  <g id="star-6" transform="translate(0.053 -11.973)">
    <g id="Groupe_1898" data-name="Groupe 1898" transform="translate(2.501 13.065)">
      <g id="Groupe_1897" data-name="Groupe 1897" transform="translate(0 0)">
        <path id="Tracé_1339" data-name="Tracé 1339" d="M77.555,42.956l-3.312-.481-1.481-3a1.561,1.561,0,0,0-2.8,0l-1.481,3-3.312.481a1.561,1.561,0,0,0-.865,2.662l2.4,2.336-.566,3.3A1.561,1.561,0,0,0,68.4,52.9l2.963-1.558L74.325,52.9a1.561,1.561,0,0,0,2.264-1.645l-.566-3.3,2.4-2.336A1.561,1.561,0,0,0,77.555,42.956Zm-.069,1.7-2.649,2.582a.669.669,0,0,0-.192.592l.625,3.646a.222.222,0,0,1-.323.235l-3.274-1.721a.669.669,0,0,0-.622,0l-3.274,1.721a.222.222,0,0,1-.323-.235l.625-3.646a.669.669,0,0,0-.192-.592L65.238,44.66a.222.222,0,0,1,.124-.38l3.66-.532a.669.669,0,0,0,.5-.366l1.637-3.317a.222.222,0,0,1,.4,0L73.2,43.382a.669.669,0,0,0,.5.366l3.66.532A.222.222,0,0,1,77.487,44.66Z" transform="translate(-63.831 -38.604)" fill="#fff" stroke="#02132b" stroke-width="0.1"/>
      </g>
    </g>
    <g id="Groupe_1900" data-name="Groupe 1900" transform="translate(3.269 12.023)">
      <g id="Groupe_1899" data-name="Groupe 1899">
        <path id="Tracé_1340" data-name="Tracé 1340" d="M85.456,13.4l-.8-1.1a.669.669,0,0,0-1.082.786l.8,1.1a.669.669,0,0,0,1.082-.786Z" transform="translate(-83.446 -12.023)" fill="#fff" stroke="#02132b" stroke-width="0.1"/>
      </g>
    </g>
    <g id="Groupe_1902" data-name="Groupe 1902" transform="translate(-0.001 22.803)">
      <g id="Groupe_1901" data-name="Groupe 1901" transform="translate(0)">
        <path id="Tracé_1341" data-name="Tracé 1341" d="M2.625,287.571a.669.669,0,0,0-.843-.429l-1.32.429a.669.669,0,0,0,.413,1.272l1.32-.429A.669.669,0,0,0,2.625,287.571Z" transform="translate(0.001 -287.109)" fill="#fff" stroke="#02132b" stroke-width="0.1"/>
      </g>
    </g>
    <g id="Groupe_1904" data-name="Groupe 1904" transform="translate(14.656 12.024)">
      <g id="Groupe_1903" data-name="Groupe 1903" transform="translate(0 0)">
        <path id="Tracé_1342" data-name="Tracé 1342" d="M375.871,12.153a.669.669,0,0,0-.934.148l-.8,1.1a.669.669,0,0,0,1.082.786l.8-1.1A.669.669,0,0,0,375.871,12.153Z" transform="translate(-374.009 -12.025)" fill="#fff" stroke="#02132b" stroke-width="0.1"/>
      </g>
    </g>
    <g id="Groupe_1906" data-name="Groupe 1906" transform="translate(17.405 22.803)">
      <g id="Groupe_1905" data-name="Groupe 1905">
        <path id="Tracé_1343" data-name="Tracé 1343" d="M446.358,287.57l-1.32-.429a.669.669,0,0,0-.413,1.272l1.32.429a.669.669,0,1,0,.413-1.272Z" transform="translate(-444.162 -287.108)" fill="#fff" stroke="#02132b" stroke-width="0.1"/>
      </g>
    </g>
    <g id="Groupe_1908" data-name="Groupe 1908" transform="translate(9.363 28.45)">
      <g id="Groupe_1907" data-name="Groupe 1907">
        <path id="Tracé_1344" data-name="Tracé 1344" d="M239.6,431.2a.669.669,0,0,0-.669.669v1.357a.669.669,0,1,0,1.338,0v-1.357A.669.669,0,0,0,239.6,431.2Z" transform="translate(-238.934 -431.205)" fill="#fff" stroke="#02132b" stroke-width="0.1"/>
      </g>
    </g>
  </g>
</svg>
