<svg xmlns="http://www.w3.org/2000/svg" xmlns:xlink="http://www.w3.org/1999/xlink" width="45.926" height="51.442" viewBox="0 0 45.926 51.442">
  <defs>
    <filter id="Ellipse_176" x="0" y="0" width="39.3" height="39.3" filterUnits="userSpaceOnUse">
      <feOffset dy="3" input="SourceAlpha"/>
      <feGaussianBlur stdDeviation="6" result="blur"/>
      <feFlood/>
      <feComposite operator="in" in2="blur"/>
      <feComposite in="SourceGraphic"/>
    </filter>
    <filter id="Ellipse_179" x="0" y="6.071" width="39.3" height="39.3" filterUnits="userSpaceOnUse">
      <feOffset dy="3" input="SourceAlpha"/>
      <feGaussianBlur stdDeviation="6" result="blur-2"/>
      <feFlood/>
      <feComposite operator="in" in2="blur-2"/>
      <feComposite in="SourceGraphic"/>
    </filter>
    <filter id="Ellipse_181" x="0" y="12.142" width="39.3" height="39.3" filterUnits="userSpaceOnUse">
      <feOffset dy="3" input="SourceAlpha"/>
      <feGaussianBlur stdDeviation="6" result="blur-3"/>
      <feFlood/>
      <feComposite operator="in" in2="blur-3"/>
      <feComposite in="SourceGraphic"/>
    </filter>
    <filter id="Ellipse_177" x="6.626" y="0" width="39.3" height="39.3" filterUnits="userSpaceOnUse">
      <feOffset dy="3" input="SourceAlpha"/>
      <feGaussianBlur stdDeviation="6" result="blur-4"/>
      <feFlood/>
      <feComposite operator="in" in2="blur-4"/>
      <feComposite in="SourceGraphic"/>
    </filter>
    <filter id="Ellipse_178" x="6.626" y="6.071" width="39.3" height="39.3" filterUnits="userSpaceOnUse">
      <feOffset dy="3" input="SourceAlpha"/>
      <feGaussianBlur stdDeviation="6" result="blur-5"/>
      <feFlood/>
      <feComposite operator="in" in2="blur-5"/>
      <feComposite in="SourceGraphic"/>
    </filter>
    <filter id="Ellipse_180" x="6.626" y="12.142" width="39.3" height="39.3" filterUnits="userSpaceOnUse">
      <feOffset dy="3" input="SourceAlpha"/>
      <feGaussianBlur stdDeviation="6" result="blur-6"/>
      <feFlood/>
      <feComposite operator="in" in2="blur-6"/>
      <feComposite in="SourceGraphic"/>
    </filter>
  </defs>
  <g id="Groupe_3083" data-name="Groupe 3083" transform="translate(-40 -158)">
    <g transform="matrix(1, 0, 0, 1, 40, 158)" filter="url(#Ellipse_176)">
      <circle id="Ellipse_176-2" data-name="Ellipse 176" cx="1.65" cy="1.65" r="1.65" transform="translate(18 15)" fill="#fff"/>
    </g>
    <g transform="matrix(1, 0, 0, 1, 40, 158)" filter="url(#Ellipse_179)">
      <circle id="Ellipse_179-2" data-name="Ellipse 179" cx="1.65" cy="1.65" r="1.65" transform="translate(18 21.07)" fill="#fff"/>
    </g>
    <g transform="matrix(1, 0, 0, 1, 40, 158)" filter="url(#Ellipse_181)">
      <circle id="Ellipse_181-2" data-name="Ellipse 181" cx="1.65" cy="1.65" r="1.65" transform="translate(18 27.14)" fill="#fff"/>
    </g>
    <g transform="matrix(1, 0, 0, 1, 40, 158)" filter="url(#Ellipse_177)">
      <circle id="Ellipse_177-2" data-name="Ellipse 177" cx="1.65" cy="1.65" r="1.65" transform="translate(24.63 15)" fill="#fff"/>
    </g>
    <g transform="matrix(1, 0, 0, 1, 40, 158)" filter="url(#Ellipse_178)">
      <circle id="Ellipse_178-2" data-name="Ellipse 178" cx="1.65" cy="1.65" r="1.65" transform="translate(24.63 21.07)" fill="#fff"/>
    </g>
    <g transform="matrix(1, 0, 0, 1, 40, 158)" filter="url(#Ellipse_180)">
      <circle id="Ellipse_180-2" data-name="Ellipse 180" cx="1.65" cy="1.65" r="1.65" transform="translate(24.63 27.14)" fill="#fff"/>
    </g>
  </g>
</svg>
