<svg xmlns="http://www.w3.org/2000/svg" width="24" height="25" viewBox="0 0 24 25">
  <g id="Groupe_3209" data-name="Groupe 3209" transform="translate(-283 -49)">
    <g id="vuesax_twotone_notification" data-name="vuesax/twotone/notification" transform="translate(112 -138)">
      <g id="notification">
        <path id="Vector" d="M8.046,0a6,6,0,0,0-6,6V8.89a4.778,4.778,0,0,1-.57,2.06L.326,12.86a1.919,1.919,0,0,0,1.08,2.93,20.921,20.921,0,0,0,13.27,0,2,2,0,0,0,1.08-2.93l-1.15-1.91a4.91,4.91,0,0,1-.56-2.06V6A6.018,6.018,0,0,0,8.046,0Z" transform="translate(174.974 190.91)" fill="none" stroke="#fff" stroke-linecap="round" stroke-width="1.5"/>
        <path id="Vector-2" data-name="Vector" d="M3.7,1.26a6.054,6.054,0,0,0-.96-.2A6.754,6.754,0,0,0,0,1.26a1.988,1.988,0,0,1,3.7,0Z" transform="translate(181.17 189.94)" fill="none" stroke="#fff" stroke-linecap="round" stroke-linejoin="round" stroke-width="1.5"/>
        <path id="Vector-3" data-name="Vector" d="M6,0A3.009,3.009,0,0,1,3,3,3.011,3.011,0,0,1,.88,2.12,3.011,3.011,0,0,1,0,0" transform="translate(180.02 207.06)" fill="none" stroke="#fff" stroke-width="1.5" opacity="0.4"/>
        <path id="Vector-4" data-name="Vector" d="M0,0H24V24H0Z" transform="translate(171 188)" fill="none" opacity="0"/>
      </g>
    </g>
    <circle id="Ellipse_179" data-name="Ellipse 179" cx="2.5" cy="2.5" r="2.5" transform="translate(301 49)" fill="#ff3838"/>
  </g>
</svg>
