<svg xmlns="http://www.w3.org/2000/svg" xmlns:xlink="http://www.w3.org/1999/xlink" width="358.609" height="88.405" viewBox="0 0 358.609 88.405">
  <defs>
    <linearGradient id="linear-gradient" x1="-0.362" y1="-0.372" x2="0.5" y2="1" gradientUnits="objectBoundingBox">
      <stop offset="0" stop-color="#bba485"/>
      <stop offset="0.365" stop-color="#e5d6b3"/>
      <stop offset="0.685" stop-color="#bba87c"/>
      <stop offset="1" stop-color="#b29777"/>
    </linearGradient>
  </defs>
  <g id="Groupe_3188" data-name="Groupe 3188" transform="translate(-418.391 -153.327)">
    <path id="LOGO-FYD-VECTORIEL" d="M29.88,0a29.71,29.71,0,0,0-17.1,5.393c-.45.314-.89.64-1.318.984-.462.356-.907.729-1.344,1.119A29.825,29.825,0,0,0,0,29.879V58.525A29.747,29.747,0,0,0,.8,65.41c-.123.06-.246.115-.377.165h.42A29.931,29.931,0,0,0,29.88,88.4h3.46A29.9,29.9,0,0,0,63.219,58.525V29.879a29.677,29.677,0,0,0-2.408-11.752c-.2-.466-.411-.928-.64-1.386A29.9,29.9,0,0,0,33.339,0H29.88Zm0,.848h3.46A29.067,29.067,0,0,1,59.225,16.741h-6.6c1.772.738,3.137,1.84,3.137,3.807,0,3.069-13.371,28.862-15.419,33.161-1.051-2.082-5.232-9.958-9.051-17.513a4.669,4.669,0,0,1,2.438,2.234V31.8a4.434,4.434,0,0,1-3.43,2.425c-3.21-6.41-5.923-12.184-5.923-13.431,0-2.09,1.772-3.315,3.82-4.053h-14.6a13.163,13.163,0,0,1,6.957,6.507L26.128,34.5h-7c-3.824,0-9.009-3.561-9.009-7.368V8.635a28.459,28.459,0,0,1,2.743-2.26H29.63c5.049,0,9.963.123,12.282,4.79l1.229-5.774H14.3A28.86,28.86,0,0,1,29.88.848ZM.848,58.525V29.879A28.867,28.867,0,0,1,5.482,14.16c.047,2.039-.144,4.133-.144,5.973,0,7.86,2.73,12.4,11.464,14.859C4.248,38.307,5.066,46.167,5.066,55.748c0,3.561-.11,7.228-3.489,9.255a28.9,28.9,0,0,1-.729-6.478ZM41.5,54.994,56.716,23.249a13.759,13.759,0,0,1,3.4-4.578,28.868,28.868,0,0,1,2.251,11.209v5.282C51.4,36.832,44.985,47.126,44.985,56.855A12.2,12.2,0,0,0,41.5,54.994ZM1.717,65.575H14.893c-3.413-1.352-4.778-3.2-4.778-6.635V43.467c0-3.93,5.049-7.983,9.009-7.983h7.495l9.272,18.7c-11.942.275-20.7,9.161-20.7,19.815,0,5.71,2.688,10.281,7.4,12.629A29.119,29.119,0,0,1,1.717,65.575Zm46.46,15.987V57.622c0-9.386.424-19.726,13.622-19.726.191,0,.381,0,.572,0V58.525A29.049,29.049,0,0,1,48.385,83.347h0a8.256,8.256,0,0,1-.2-1.785ZM18.912,72.655c0-8.81,6.067-17.908,16.92-17.908.119,0,.233,0,.343,0l1.98,3.993C35.836,63.532,32.971,73.236,25.6,73.236a11.277,11.277,0,0,1-3.548-.615v4.053a14.861,14.861,0,0,0,13.24-8.72L41.076,55.88c3.79,2.1,3.909,6.711,3.909,10.361v7.372c-.106,6.033-5.854,12.93-12.557,12.93-9.047,0-13.515-6.321-13.515-13.888Zm26.073,4.311c-.059,2.107-.551,5.5.331,8a28.808,28.808,0,0,1-10.3,2.535C39.876,85.721,44.493,81.371,44.985,76.967Z" transform="translate(418.391 153.327)" fill="url(#linear-gradient)"/>
    <text id="FindYourDresses" transform="translate(777 204)" font-size="37" font-family="Helvetica" letter-spacing="-0.02em"><tspan x="-272.072" y="0">FindYourDresses</tspan></text>
    <text id="DÉFILÉ_HAUT_COUTURE" data-name="DÉFILÉ HAUT COUTURE" transform="translate(713 227)" font-size="13" font-family="Helvetica-Light, Helvetica" font-weight="300" letter-spacing="0.3em"><tspan x="-217.555" y="0">DÉFILÉ HAUT COUTURE</tspan></text>
  </g>
</svg>
